<svg viewBox="0 0 48 48" xmlns="http://www.w3.org/2000/svg">
  <path d="M38.86 25.96C38.92 25.32 39 24.68 39 24C39 23.32 38.92 22.68 38.86 22.04L43.08 18.74C43.38 18.5 43.48 18.06 43.26 17.7L39.26 11.7C39.04 11.32 38.6 11.2 38.24 11.32L33.12 13.12C32.12 12.36 31 11.72 29.78 11.26L29 6H19L18.2199 11.26C16.9999 11.72 15.8799 12.36 14.8799 13.12L9.75995 11.32C9.39995 11.2 8.95995 11.32 8.73995 11.7L4.73995 17.7C4.51995 18.06 4.61995 18.5 4.91995 18.74L9.13995 22.04C9.07995 22.68 8.99995 23.32 8.99995 24C8.99995 24.68 9.07995 25.32 9.13995 25.96L4.91995 29.26C4.61995 29.5 4.51995 29.94 4.73995 30.3L8.73995 36.3C8.95995 36.68 9.39995 36.8 9.75995 36.68L14.8799 34.88C15.8799 35.64 16.9999 36.28 18.2199 36.74L19 42H29L29.78 36.74C31 36.28 32.12 35.64 33.12 34.88L38.24 36.68C38.6 36.8 39.04 36.68 39.26 36.3L43.26 30.3C43.48 29.94 43.38 29.5 43.08 29.26L38.86 25.96ZM24 31C20.14 31 17 27.86 17 24C17 20.14 20.14 17 24 17C27.86 17 31 20.14 31 24C31 27.86 27.86 31 24 31Z" fill="currentColor"/>
</svg>